<?xml version="1.0" encoding="UTF-8"?>
<!DOCTYPE svg PUBLIC "-//W3C//DTD SVG 1.1//EN" "http://www.w3.org/Graphics/SVG/1.1/DTD/svg11.dtd">
<svg id="logo.svg" xmlns="http://www.w3.org/2000/svg" version="1.1" width="2000px" height="2250px" style="shape-rendering:geometricPrecision; text-rendering:geometricPrecision; image-rendering:optimizeQuality; fill-rule:evenodd; clip-rule:evenodd" xmlns:xlink="http://www.w3.org/1999/xlink">
<g><path style="opacity:0.994" fill="#4b2669" d="M -0.5,1043.5 C -0.5,1040.83 -0.5,1038.17 -0.5,1035.5C 2.55052,1022.74 5.05052,1009.74 7,996.5C 13.2551,952.047 20.2551,907.714 28,863.5C 36.342,813.136 53.0087,765.802 78,721.5C 95.7926,694.021 116.959,669.188 141.5,647C 174.656,618.511 205.822,588.011 235,555.5C 240.341,548.826 244.675,541.493 248,533.5C 252.667,520.167 257.333,506.833 262,493.5C 264.577,487.34 267.91,481.673 272,476.5C 323.647,423.183 376.813,371.683 431.5,322C 439.877,314.621 448.544,307.621 457.5,301C 466.943,295.598 477.109,293.098 488,293.5C 504.994,294.907 521.994,296.24 539,297.5C 546.557,297.368 554.057,296.701 561.5,295.5C 572.019,260.468 593.686,234.635 626.5,218C 647.727,208.08 669.727,205.913 692.5,211.5C 695.912,210.98 699.245,210.147 702.5,209C 710.18,204.494 717.513,199.494 724.5,194C 738.167,181 751.833,168 765.5,155C 770.891,149.98 777.225,147.98 784.5,149C 786.049,150.214 787.215,151.714 788,153.5C 788.364,166.537 788.031,179.537 787,192.5C 810.974,174.42 836.808,159.253 864.5,147C 904.665,130.222 945.331,114.722 986.5,100.5C 994.15,102.992 1001.48,106.159 1008.5,110C 1017.46,116.621 1026.12,123.621 1034.5,131C 1045,138.896 1056.34,140.396 1068.5,135.5C 1068.38,145.182 1068.71,154.848 1069.5,164.5C 1070.35,178.462 1066.85,191.128 1059,202.5C 1051.2,209.48 1042.03,213.313 1031.5,214C 930.695,206.3 834.362,223.3 742.5,265C 725.555,272.806 708.888,281.139 692.5,290C 635.336,323.081 578.336,356.414 521.5,390C 511.884,396.615 502.55,403.615 493.5,411C 460.134,442.7 426.468,474.034 392.5,505C 346.028,549.106 305.195,597.606 270,650.5C 230.773,713.504 205.773,781.837 195,855.5C 186.292,936.535 177.292,1017.54 168,1098.5C 166.732,1103.64 165.066,1108.64 163,1113.5C 157.045,1125.08 151.378,1136.74 146,1148.5C 143.67,1155.32 142.17,1162.32 141.5,1169.5C 148.513,1220.09 155.847,1270.59 163.5,1321C 159.765,1318.02 155.432,1315.69 150.5,1314C 143.896,1313.39 139.396,1316.22 137,1322.5C 134.764,1337.12 139.264,1349.29 150.5,1359C 158.208,1359.98 163.874,1356.98 167.5,1350C 168.332,1349.31 168.998,1349.48 169.5,1350.5C 185.161,1385.49 199.994,1420.82 214,1456.5C 222.872,1478.6 234.539,1498.93 249,1517.5C 291.402,1564.9 335.569,1610.74 381.5,1655C 427.5,1697.67 473.5,1740.33 519.5,1783C 538.805,1801.3 557.805,1819.97 576.5,1839C 578.034,1839.92 579.701,1840.42 581.5,1840.5C 592.965,1838.57 604.298,1836.07 615.5,1833C 619.165,1831.5 622.498,1829.5 625.5,1827C 627.389,1824.04 629.389,1821.21 631.5,1818.5C 635.207,1826.32 634.707,1833.99 630,1841.5C 624.909,1848.46 618.409,1853.63 610.5,1857C 650.645,1883.5 694.312,1901.83 741.5,1912C 793.252,1917.14 844.918,1923.14 896.5,1930C 941.423,1937.12 985.923,1946.28 1030,1957.5C 1072.84,1946.24 1116.34,1939.07 1160.5,1936C 1163.43,1934.73 1166.1,1933.06 1168.5,1931C 1175.49,1921.5 1184.16,1914 1194.5,1908.5C 1196.1,1898.81 1197.77,1889.14 1199.5,1879.5C 1201.84,1883.21 1204.84,1886.21 1208.5,1888.5C 1209.09,1888.29 1209.59,1887.96 1210,1887.5C 1210.69,1882.11 1210.36,1876.78 1209,1871.5C 1206.87,1864.95 1204.54,1858.61 1202,1852.5C 1215.61,1864.76 1226.94,1878.76 1236,1894.5C 1239.28,1887.11 1244.11,1880.95 1250.5,1876C 1256.83,1875.66 1260,1878.83 1260,1885.5C 1262.34,1875.66 1264.17,1865.66 1265.5,1855.5C 1268.04,1855.1 1270.21,1855.77 1272,1857.5C 1273.93,1862.36 1276.59,1866.7 1280,1870.5C 1281.26,1870.24 1282.26,1869.57 1283,1868.5C 1285.09,1862.54 1287.76,1856.88 1291,1851.5C 1294.33,1848.87 1298.17,1847.54 1302.5,1847.5C 1307.82,1848.26 1313.16,1848.93 1318.5,1849.5C 1322.56,1848.98 1326.56,1848.48 1330.5,1848C 1326.95,1854.77 1326.79,1861.6 1330,1868.5C 1331.65,1870.66 1333.81,1872 1336.5,1872.5C 1339.95,1871.27 1343.29,1869.77 1346.5,1868C 1354.06,1860.6 1362.06,1853.77 1370.5,1847.5C 1373.83,1854.65 1378.5,1860.82 1384.5,1866C 1389.78,1869.16 1395.44,1870.16 1401.5,1869C 1407.71,1867.23 1413.71,1864.89 1419.5,1862C 1549.64,1777.19 1675.31,1686.19 1796.5,1589C 1797.64,1588.25 1798.64,1588.42 1799.5,1589.5C 1798.18,1599.81 1797.35,1610.15 1797,1620.5C 1801.05,1606.63 1805.55,1592.96 1810.5,1579.5C 1817.91,1587.2 1825.91,1588.03 1834.5,1582C 1846.28,1565.22 1858.45,1548.72 1871,1532.5C 1884.3,1517.86 1898.8,1504.69 1914.5,1493C 1916.57,1491.13 1918.9,1490.13 1921.5,1490C 1888.12,1581.95 1843.62,1667.78 1788,1747.5C 1766.62,1775.57 1744.29,1802.9 1721,1829.5C 1721.42,1870.74 1701.26,1887.91 1660.5,1881C 1652.33,1882.5 1645.16,1886 1639,1891.5C 1637.09,1895.47 1637.09,1899.47 1639,1903.5C 1641.17,1907.17 1643.33,1910.83 1645.5,1914.5C 1645.17,1914.83 1644.83,1915.17 1644.5,1915.5C 1639.17,1911.5 1633.5,1908 1627.5,1905C 1618.15,1902.18 1608.81,1902.52 1599.5,1906C 1589.5,1909.33 1579.5,1912.67 1569.5,1916C 1565.86,1918.85 1565.69,1922.01 1569,1925.5C 1574.3,1931.8 1579.97,1937.8 1586,1943.5C 1593.56,1954.36 1598.06,1966.36 1599.5,1979.5C 1598.93,1982.18 1598.26,1984.84 1597.5,1987.5C 1586.47,1976.47 1575.8,1965.14 1565.5,1953.5C 1559.7,1956.8 1554.03,1960.3 1548.5,1964C 1528.63,1980.87 1510.47,1999.37 1494,2019.5C 1485.33,2028.17 1476.67,2036.83 1468,2045.5C 1466.11,2048.62 1464.77,2051.95 1464,2055.5C 1463.41,2066.85 1463.57,2078.18 1464.5,2089.5C 1450.5,2088.74 1436.5,2088.58 1422.5,2089C 1412.12,2090.38 1405.95,2096.21 1404,2106.5C 1402.58,2118.5 1402.08,2130.5 1402.5,2142.5C 1394.08,2140.71 1386.92,2136.71 1381,2130.5C 1375.25,2122.08 1368.75,2114.25 1361.5,2107C 1358.27,2104.54 1354.61,2103.37 1350.5,2103.5C 1325.91,2106.98 1301.91,2112.82 1278.5,2121C 1274.92,2122.71 1271.42,2124.54 1268,2126.5C 1268.65,2130.78 1269.48,2135.11 1270.5,2139.5C 1269.22,2146.65 1264.89,2149.65 1257.5,2148.5C 1252.73,2148.48 1248.06,2147.82 1243.5,2146.5C 1242.83,2146.83 1242.17,2147.17 1241.5,2147.5C 1222.06,2134.95 1201.4,2124.78 1179.5,2117C 1157.67,2110.66 1136,2111.16 1114.5,2118.5C 1067.31,2104.91 1019.14,2098.58 970,2099.5C 953.153,2099.55 936.319,2100.05 919.5,2101C 880.402,2103.92 841.402,2107.75 802.5,2112.5C 802.43,2105.98 802.763,2099.48 803.5,2093C 803.548,2089.49 802.881,2086.16 801.5,2083C 800.833,2082.33 800.167,2082.33 799.5,2083C 797.671,2086.83 794.671,2089.16 790.5,2090C 786.833,2090.67 783.167,2090.67 779.5,2090C 761.669,2077.91 743.336,2066.58 724.5,2056C 686.676,2036.59 649.009,2016.92 611.5,1997C 561.191,2000.12 517.525,1984.79 480.5,1951C 467.56,1943.26 453.56,1938.93 438.5,1938C 353.183,1948.28 295.349,1913.45 265,1833.5C 257.296,1811.68 251.63,1789.35 248,1766.5C 242.254,1747.75 229.921,1736.41 211,1732.5C 197.907,1691.89 183.241,1651.89 167,1612.5C 134.333,1537.83 101.667,1463.17 69,1388.5C 64.9187,1377.84 62.252,1366.84 61,1355.5C 59.1108,1335.83 59.1108,1316.16 61,1296.5C 79.0505,1303.66 87.3839,1297.66 86,1278.5C 75.8283,1215.99 56.8283,1156.32 29,1099.5C 19.902,1080.3 10.0687,1061.63 -0.5,1043.5 Z M 158.5,1401.5 C 163.944,1403.1 168.11,1406.43 171,1411.5C 178.776,1426.83 185.776,1442.5 192,1458.5C 195.036,1465.52 198.87,1472.02 203.5,1478C 193.639,1475.14 185.472,1469.64 179,1461.5C 177.725,1459.28 176.725,1456.95 176,1454.5C 175.287,1445.31 173.62,1436.31 171,1427.5C 167.135,1418.93 162.635,1410.76 157.5,1403C 158.056,1402.62 158.389,1402.12 158.5,1401.5 Z M 151.5,1444.5 C 143.907,1435.06 136.074,1425.73 128,1416.5C 127.149,1411.04 129.315,1407.21 134.5,1405C 137.804,1403.96 139.971,1405.12 141,1408.5C 144.608,1420.49 148.108,1432.49 151.5,1444.5 Z"/></g>
<g><path style="opacity:0.994" fill="#4b2669" d="M 1999.5,921.5 C 1999.5,922.5 1999.5,923.5 1999.5,924.5C 1983.28,967.718 1972.45,1012.38 1967,1058.5C 1963.67,1084.77 1961.01,1111.1 1959,1137.5C 1956.33,1131.49 1954.66,1125.16 1954,1118.5C 1952.83,1107.53 1952,1096.53 1951.5,1085.5C 1953.43,1052.39 1956.27,1019.39 1960,986.5C 1956.45,991.713 1951.95,995.88 1946.5,999C 1941.27,1000.47 1937.1,998.966 1934,994.5C 1932.11,991.382 1930.77,988.049 1930,984.5C 1929.86,976.771 1929.19,969.105 1928,961.5C 1926.95,959.91 1925.79,958.41 1924.5,957C 1918.31,953.738 1912.64,949.738 1907.5,945C 1876.79,913.612 1852.79,877.612 1835.5,837C 1846.8,810.38 1848.3,783.214 1840,755.5C 1835.1,742.871 1827.6,732.038 1817.5,723C 1804.19,715.027 1792.02,705.527 1781,694.5C 1775.14,687.624 1770.48,679.957 1767,671.5C 1757.59,649.002 1749.59,626.002 1743,602.5C 1739.46,583.967 1737.96,565.3 1738.5,546.5C 1725.68,553.825 1712.35,559.992 1698.5,565C 1689.55,567.491 1680.88,566.824 1672.5,563C 1599.17,511 1525.83,459 1452.5,407C 1405.17,374.994 1356.51,344.994 1306.5,317C 1264.9,317.484 1225.9,307.817 1189.5,288C 1175.81,279.311 1163.64,268.811 1153,256.5C 1142.08,239.344 1141.75,222.011 1152,204.5C 1164.73,190.678 1180.56,184.844 1199.5,187C 1208.83,186.333 1218.17,186.333 1227.5,187C 1233.52,187.73 1239.19,189.563 1244.5,192.5C 1248.97,180.865 1256.97,172.698 1268.5,168C 1295.17,167.11 1321.83,166.276 1348.5,165.5C 1386.46,165.327 1423.46,171.16 1459.5,183C 1556.37,211.651 1639.87,261.818 1710,333.5C 1717.67,342.5 1725.33,351.5 1733,360.5C 1800.67,469.167 1868.33,577.833 1936,686.5C 1942.25,735.471 1948.25,784.471 1954,833.5C 1957.89,874.408 1960.06,915.408 1960.5,956.5C 1965.57,955.218 1969.73,952.551 1973,948.5C 1977.51,939.647 1983.34,931.813 1990.5,925C 1993.31,923.259 1996.31,922.092 1999.5,921.5 Z"/></g>
<g><path style="opacity:0.926" fill="#4f23c4" d="M 905.5,561.5 C 968.17,561.167 1030.84,561.5 1093.5,562.5C 1124.75,616.003 1155.75,669.67 1186.5,723.5C 1155.22,777.076 1124.22,830.743 1093.5,884.5C 1030.83,885.833 968.167,885.833 905.5,884.5C 874.753,830.67 843.753,777.003 812.5,723.5C 843.524,669.445 874.524,615.445 905.5,561.5 Z M 909.5,567.5 C 926.833,567.5 944.167,567.5 961.5,567.5C 961.667,585.503 961.5,603.503 961,621.5C 940.333,642.167 919.667,662.833 899,683.5C 883.716,674.199 868.883,675.032 854.5,686C 842.508,699.341 840.341,714.174 848,730.5C 862.384,749.127 879.884,752.627 900.5,741C 914.462,727.855 917.962,712.355 911,694.5C 933,672.5 955,650.5 977,628.5C 977.5,608.169 977.667,587.836 977.5,567.5C 1014.83,567.333 1052.17,567.5 1089.5,568C 1096.09,578.502 1102.42,589.168 1108.5,600C 1093.83,600.333 1079.17,600.667 1064.5,601C 1051.17,614.333 1037.83,627.667 1024.5,641C 1020.83,640.016 1017.17,638.683 1013.5,637C 992.467,632.995 977.967,640.828 970,660.5C 965.708,681.416 973.208,696.249 992.5,705C 1009.78,709.685 1023.61,704.852 1034,690.5C 1038.68,682.766 1040.35,674.433 1039,665.5C 1037.65,661.173 1036.65,656.84 1036,652.5C 1048.17,640.333 1060.33,628.167 1072.5,616C 1087.5,615.333 1102.5,615.333 1117.5,616C 1138.29,651.752 1158.96,687.585 1179.5,723.5C 1163.04,751.585 1146.71,779.751 1130.5,808C 1092.17,808.667 1053.83,808.667 1015.5,808C 1006.94,784.554 990.61,776.221 966.5,783C 952.856,789.428 945.522,800.261 944.5,815.5C 945.6,833.266 954.6,844.933 971.5,850.5C 972.498,860.144 972.832,869.81 972.5,879.5C 951.497,879.667 930.497,879.5 909.5,879C 898.46,859.751 887.293,840.585 876,821.5C 875.333,820.5 875.333,819.5 876,818.5C 902.5,792 929,765.5 955.5,739C 983.498,738.5 1011.5,738.333 1039.5,738.5C 1044.21,755.967 1055.71,765.3 1074,766.5C 1095.41,763.923 1107.24,751.923 1109.5,730.5C 1105.93,704.879 1091.26,693.379 1065.5,696C 1051.57,699.758 1042.91,708.592 1039.5,722.5C 1009.5,722.333 979.498,722.5 949.5,723C 922,750.5 894.5,778 867,805.5C 850.967,778.296 835.134,750.963 819.5,723.5C 849.512,671.473 879.512,619.473 909.5,567.5 Z M 999.5,651.5 C 1017.01,651.505 1024.84,660.172 1023,677.5C 1015.73,691.367 1005.23,694.534 991.5,687C 984.456,680.082 982.623,671.915 986,662.5C 989.213,657.107 993.713,653.441 999.5,651.5 Z M 874.5,692.5 C 894.69,693.222 901.857,703.222 896,722.5C 888.398,732.696 878.898,734.862 867.5,729C 855.5,718 855.5,707 867.5,696C 869.925,694.787 872.259,693.621 874.5,692.5 Z M 1069.5,710.5 C 1086.52,710.348 1094.35,718.682 1093,735.5C 1086.92,749.974 1076.75,753.807 1062.5,747C 1050.5,736 1050.5,725 1062.5,714C 1064.93,712.787 1067.26,711.621 1069.5,710.5 Z M 977.5,795.5 C 992.799,796.296 1000.3,804.296 1000,819.5C 994.121,835.019 983.621,839.186 968.5,832C 957.605,820.702 957.938,809.702 969.5,799C 972.158,797.522 974.825,796.355 977.5,795.5 Z M 1014.5,823.5 C 1050.17,823.333 1085.83,823.5 1121.5,824C 1110.83,842.333 1100.17,860.667 1089.5,879C 1055.83,879.5 1022.17,879.667 988.5,879.5C 988.334,869.828 988.5,860.161 989,850.5C 1002.87,846.47 1011.37,837.47 1014.5,823.5 Z"/></g>
<g><path style="opacity:0.993" fill="#4b2669" d="M 976.5,986.5 C 1024.68,983.898 1071.68,990.065 1117.5,1005C 1186.02,1031.18 1235.52,1077.68 1266,1144.5C 1291.01,1203.05 1302.84,1264.21 1301.5,1328C 1301.33,1336.5 1301.17,1345 1301,1353.5C 1298.62,1366.21 1291.12,1374.05 1278.5,1377C 1126.83,1377.5 975.167,1377.67 823.5,1377.5C 822.801,1433.23 838.634,1483.56 871,1528.5C 916.086,1581.2 972.919,1600.7 1041.5,1587C 1090.25,1575.9 1129.08,1550.06 1158,1509.5C 1161.5,1506 1165,1502.5 1168.5,1499C 1173.19,1496.58 1178.19,1495.24 1183.5,1495C 1209.5,1494.33 1235.5,1494.33 1261.5,1495C 1278.46,1498.29 1285.62,1508.45 1283,1525.5C 1280.49,1538.04 1275.82,1549.71 1269,1560.5C 1235.21,1609.94 1190.05,1644.77 1133.5,1665C 1075.4,1685.37 1015.73,1692.04 954.5,1685C 840.206,1670.29 762.706,1609.12 722,1501.5C 706.876,1456.76 698.876,1410.76 698,1363.5C 695.102,1309.07 700.102,1255.4 713,1202.5C 751.783,1070.54 839.616,998.542 976.5,986.5 Z M 997.5,1081.5 C 1080.74,1084.02 1136.57,1124.36 1165,1202.5C 1173.6,1230.17 1177.76,1258.51 1177.5,1287.5C 1059.5,1287.5 941.5,1287.5 823.5,1287.5C 821.975,1245.96 830.475,1206.62 849,1169.5C 881.717,1112.05 931.217,1082.72 997.5,1081.5 Z"/></g>
</svg>
